M48
; DRILL file {KiCad (5.1.6)-1} date 09/08/20 12:52:38
; FORMAT={-:-/ absolute / inch / decimal}
; #@! TF.CreationDate,2020-09-08T12:52:38-05:00
; #@! TF.GenerationSoftware,Kicad,Pcbnew,(5.1.6)-1
FMAT,2
INCH
T1C0.0315
T2C0.0320
T3C0.0350
T4C0.0393
T5C0.0400
T6C0.0500
T7C0.1300
%
G90
G05
T1
X2.8Y-4.05
X2.8Y-4.15
X3.7Y-3.35
X3.7Y-3.45
X3.8Y-3.65
X3.8Y-3.75
X3.7Y-4.05
X3.7Y-4.15
X3.25Y-4.5
X3.35Y-4.5
T2
X4.9Y-2.9
X5.2Y-2.9
X4.8Y-4.4
X5.1Y-4.4
X2.8Y-5.7
X2.8Y-6.1
X3.15Y-3.45
X3.15Y-3.55
X3.15Y-3.65
X3.15Y-3.75
X3.15Y-3.85
X3.15Y-3.95
X3.15Y-4.05
X3.15Y-4.15
X3.45Y-3.45
X3.45Y-3.55
X3.45Y-3.65
X3.45Y-3.75
X3.45Y-3.85
X3.45Y-3.95
X3.45Y-4.05
X3.45Y-4.15
X2.5Y-5.35
X2.5Y-5.45
X3.4Y-5.35
X3.4Y-5.45
X4.9Y-5.4
X5.2Y-5.4
X4.8Y-3.98
X5.1Y-3.98
X3.4Y-6.8
X3.4Y-6.9
X3.4Y-7.0
X2.2Y-5.35
X2.2Y-5.45
X4.9Y-2.2
X5.2Y-2.2
X4.9Y-5.0
X5.2Y-5.0
X4.8Y-3.6
X5.1Y-3.6
X4.9Y-3.8
X5.2Y-3.8
X4.9Y-4.6
X5.2Y-4.6
X4.0Y-5.7
X4.0Y-6.1
X4.8Y-3.2
X5.1Y-3.2
X3.1Y-5.7
X3.1Y-6.1
X3.7Y-5.35
X3.7Y-5.45
X4.3Y-5.7
X4.3Y-6.1
X4.9Y-4.2
X5.2Y-4.2
X3.7Y-5.7
X3.7Y-6.1
X4.8Y-2.7
X5.1Y-2.7
X2.5Y-5.7
X2.5Y-6.1
X4.3Y-5.35
X4.3Y-5.45
X3.1Y-5.35
X3.1Y-5.45
X4.9Y-3.4
X5.2Y-3.4
X4.9Y-2.4
X5.2Y-2.4
X3.4Y-5.7
X3.4Y-6.1
X2.5Y-3.8
X2.5Y-4.2
X2.8Y-5.35
X2.8Y-5.45
X4.8Y-5.2
X5.1Y-5.2
X4.8Y-4.8
X5.1Y-4.8
X2.2Y-5.7
X2.2Y-6.1
X2.5Y-3.45
X2.5Y-3.55
X4.0Y-5.35
X4.0Y-5.45
T3
X4.3Y-7.6
X4.4Y-7.6
X4.5Y-7.6
X4.6Y-7.6
X4.7Y-7.6
X4.8Y-7.6
X4.9Y-7.6
X5.0Y-7.6
X5.1Y-7.6
X5.2Y-7.6
X5.3Y-7.6
X5.4Y-7.6
X5.5Y-7.6
X5.6Y-7.6
X2.6Y-7.0
X2.7Y-7.0
X2.8Y-7.0
X2.95Y-6.6
X3.05Y-6.6
X3.15Y-6.6
X3.25Y-6.6
X3.35Y-6.6
X3.45Y-6.6
X3.55Y-6.6
X3.65Y-6.6
X2.3Y-3.2
X2.4Y-3.2
X2.5Y-3.2
X5.5Y-6.25
X5.5Y-6.35
X5.5Y-6.45
X5.5Y-6.55
X5.5Y-6.65
X5.5Y-6.75
X5.5Y-6.85
X5.5Y-6.95
X5.3Y-6.25
X5.3Y-6.35
X5.3Y-6.45
X5.3Y-6.55
X5.3Y-6.65
X5.3Y-6.75
X5.3Y-6.85
X5.3Y-6.95
X4.6Y-7.3
X4.7Y-7.3
X4.8Y-7.3
X4.9Y-7.3
X5.0Y-7.3
X5.1Y-7.3
X5.2Y-7.3
X5.3Y-7.3
X5.4Y-7.3
X5.5Y-7.3
X5.6Y-7.3
X2.1Y-2.9
X2.2Y-2.9
X2.3Y-2.9
X2.3Y-3.85
X2.3Y-3.95
X4.4Y-3.75
X4.4Y-3.85
X4.4Y-3.95
X4.4Y-4.05
X4.4Y-4.15
X4.4Y-4.25
X4.4Y-4.35
X4.4Y-4.45
T4
X5.5442Y-4.323
X5.5442Y-4.5
X5.8Y-4.323
X5.8Y-4.5
X5.5442Y-3.123
X5.5442Y-3.3
X5.8Y-3.123
X5.8Y-3.3
X5.5442Y-2.723
X5.5442Y-2.9
X5.8Y-2.723
X5.8Y-2.9
X5.5442Y-3.923
X5.5442Y-4.1
X5.8Y-3.923
X5.8Y-4.1
X5.5442Y-4.723
X5.5442Y-4.9
X5.8Y-4.723
X5.8Y-4.9
X5.5383Y-5.4952
X5.5383Y-5.6722
X5.7941Y-5.4952
X5.7941Y-5.6722
X5.5442Y-3.5115
X5.5442Y-3.6885
X5.8Y-3.5115
X5.8Y-3.6885
X5.5442Y-5.1115
X5.5442Y-5.2885
X5.8Y-5.1115
X5.8Y-5.2885
T5
X2.3Y-3.95
X4.4Y-3.75
X4.3Y-7.6
X2.6Y-7.0
X2.95Y-6.6
X3.084Y-2.95
X3.138Y-2.85
X3.192Y-2.95
X3.246Y-2.85
X3.3Y-2.95
X3.354Y-2.85
X3.408Y-2.95
X3.462Y-2.85
X3.516Y-2.95
X2.3Y-3.2
X5.5Y-6.95
X5.3Y-6.95
X4.6Y-7.3
X2.1Y-2.9
T6
X2.3Y-7.55
X2.4Y-7.15
X2.5Y-7.55
X2.75Y-7.55
X2.85Y-7.15
X2.95Y-7.55
X3.8Y-7.0
X4.2Y-6.9
X4.2Y-7.1
T7
X2.807Y-2.9
X3.793Y-2.9
T0
M30
